<?xml version="1.0" standalone="no"?>
<!DOCTYPE svg PUBLIC "-//W3C//DTD SVG 20010904//EN"
 "http://www.w3.org/TR/2001/REC-SVG-20010904/DTD/svg10.dtd">
<svg version="1.0" xmlns="http://www.w3.org/2000/svg"
 width="710.000000pt" height="533.000000pt" viewBox="0 0 710.000000 533.000000"
 preserveAspectRatio="xMidYMid meet">

<g transform="translate(0.000000,533.000000) scale(0.100000,-0.100000)"
fill="#000000" stroke="none">
<path d="M4980 5165 l0 -25 830 0 830 0 0 -115 0 -115 -690 0 -690 0 0 -25 0
-25 690 0 690 0 0 -340 0 -340 25 0 25 0 0 340 0 340 115 0 115 0 0 -480 0
-480 25 0 25 0 0 505 0 505 -140 0 -140 0 0 140 0 140 -855 0 -855 0 0 -25z"/>
<path d="M587 4740 c-206 -35 -351 -138 -395 -280 -22 -70 -22 -216 0 -285 62
-200 181 -381 377 -575 59 -58 142 -133 186 -168 44 -35 87 -69 95 -75 137
-110 431 -274 635 -355 154 -61 337 -114 440 -127 89 -12 85 -8 85 -89 l0 -72
-59 4 c-118 9 -215 -53 -242 -152 -52 -189 124 -501 371 -661 109 -70 191 -98
293 -101 l89 -2 88 -94 c49 -52 135 -135 192 -184 57 -49 105 -91 108 -94 3
-3 25 -21 50 -40 25 -19 47 -37 50 -40 8 -8 171 -123 215 -151 22 -14 58 -37
80 -52 141 -92 465 -256 648 -328 119 -46 135 -55 126 -70 -39 -74 57 -183
235 -268 273 -131 539 -198 914 -232 174 -15 428 -7 502 16 123 38 190 90 190
145 0 36 -50 108 -101 145 l-40 30 123 17 c68 9 148 24 179 33 30 8 69 15 85
15 44 0 216 76 263 117 75 63 118 142 145 261 14 59 30 145 37 193 l11 85 46
-23 c63 -32 103 -30 146 7 54 48 71 111 70 255 -1 96 -7 140 -28 219 -27 103
-64 195 -103 258 -13 21 -23 40 -23 43 0 12 -84 111 -116 138 -41 34 -94 57
-132 57 -27 0 -31 5 -45 56 -28 97 -81 154 -144 154 -22 0 -38 12 -78 62 -81
100 -199 220 -308 315 -56 48 -104 90 -107 93 -3 3 -25 21 -50 40 -25 19 -47
37 -50 40 -8 8 -171 123 -217 153 -24 15 -60 38 -80 51 -131 85 -441 244 -613
314 -412 167 -815 261 -1185 279 -127 6 -132 7 -220 49 -133 63 -223 87 -330
87 -99 1 -152 -16 -212 -67 -31 -26 -63 -98 -63 -141 0 -17 -11 -26 -57 -41
-43 -15 -57 -16 -61 -6 -2 7 -35 54 -74 105 -82 106 -248 274 -363 365 -44 35
-87 69 -95 75 -137 110 -431 274 -635 355 -312 123 -636 177 -848 142z m378
-55 c442 -71 962 -342 1323 -690 106 -101 272 -300 272 -324 0 -5 -30 -27 -67
-47 -154 -84 -303 -227 -380 -364 -39 -69 -78 -183 -94 -278 l-12 -72 -46 6
c-116 15 -339 79 -481 139 -326 137 -610 321 -848 550 -456 439 -545 880 -208
1036 102 47 181 59 351 54 83 -2 168 -7 190 -10z m2210 -809 c44 -14 89 -32
100 -40 18 -14 15 -15 -46 -16 -67 0 -312 -38 -406 -63 -60 -16 -64 -12 -39
47 17 41 70 82 122 95 61 16 180 6 269 -23z m460 -111 c39 -3 79 -8 90 -10 11
-2 42 -7 69 -10 27 -3 85 -13 130 -21 45 -8 104 -19 131 -23 68 -13 247 -62
375 -104 303 -101 537 -207 810 -369 41 -24 90 -53 109 -64 64 -37 256 -176
360 -262 97 -78 330 -303 392 -377 64 -77 70 -88 59 -123 -18 -64 6 -127 74
-194 43 -43 68 -59 118 -77 19 -7 35 -28 57 -74 32 -67 85 -220 102 -297 19
-83 28 -223 19 -290 -5 -36 -14 -117 -20 -180 -11 -119 -28 -208 -42 -224 -5
-6 -8 -6 -8 1 0 19 -50 72 -83 89 -16 9 -51 16 -77 16 l-47 -1 -46 77 c-83
138 -117 239 -117 348 0 56 -8 74 -33 74 -19 0 -20 -4 -14 -92 9 -138 43 -233
131 -371 l34 -53 -42 -23 c-24 -12 -65 -42 -92 -65 l-49 -44 -65 62 c-125 117
-229 170 -395 201 -59 11 -91 13 -98 6 -18 -18 1 -39 45 -45 74 -12 178 -38
184 -47 3 -5 14 -9 24 -9 25 0 152 -88 222 -153 l57 -54 -25 -48 c-25 -50 -31
-115 -15 -157 5 -13 23 -38 41 -55 35 -36 33 -38 -35 -47 -48 -5 -212 -33
-275 -46 -25 -5 -119 -12 -210 -15 -187 -7 -283 5 -426 54 -137 47 -216 103
-300 212 -39 52 -44 63 -37 86 19 55 -27 230 -79 309 -18 27 -53 62 -78 79
-39 26 -54 30 -112 30 -60 0 -70 -3 -96 -28 -100 -96 -40 -296 110 -369 68
-33 142 -58 172 -58 17 0 36 -16 67 -57 175 -233 405 -323 782 -305 147 6 161
6 190 -12 18 -11 33 -20 34 -21 1 0 -6 -25 -16 -56 -23 -68 -64 -151 -84 -167
-23 -19 -225 -26 -386 -13 -301 24 -519 67 -766 151 -291 99 -478 254 -356
294 39 13 50 31 24 39 -10 3 -76 28 -148 55 -221 84 -410 176 -625 304 -41 24
-90 53 -109 64 -65 38 -256 176 -360 262 -122 100 -349 319 -371 358 -15 26
-17 27 -101 25 -156 -4 -295 63 -444 213 -146 148 -222 304 -213 441 4 69 21
101 72 139 24 18 42 21 134 21 l107 0 -2 25 c-9 84 -5 263 6 310 35 146 76
236 156 340 82 105 185 188 312 250 48 23 104 51 124 61 20 11 44 19 53 19 10
0 36 9 59 19 142 65 570 103 862 76z m2866 -1583 c110 -71 228 -293 264 -499
24 -137 22 -152 -27 -200 -40 -39 -116 -82 -145 -83 -10 0 -13 32 -13 129 0
190 -40 356 -131 550 -27 57 -49 110 -49 117 0 24 53 16 101 -14z m253 -810
l-18 -47 -13 33 c-13 31 -12 34 14 57 35 30 40 17 17 -43z m-80 -28 c9 -36 1
-40 -41 -20 -43 20 -34 33 28 45 4 0 10 -11 13 -25z m-869 -912 c-2 -2 -20 -1
-39 2 -34 7 -35 7 -24 38 l11 32 28 -34 c16 -19 27 -36 24 -38z m-36 -51 c11
-7 4 -14 -27 -30 -56 -29 -66 -27 -47 9 16 31 45 39 74 21z"/>
<path d="M1202 4465 c-38 -36 -74 -65 -80 -65 -5 0 -66 27 -135 61 -70 33
-134 59 -144 57 -44 -8 -13 -35 110 -95 70 -34 127 -65 127 -69 0 -3 -20 -29
-46 -57 -56 -62 -137 -185 -161 -243 -10 -24 -21 -44 -24 -44 -4 0 -53 41
-110 90 -97 85 -127 101 -136 73 -2 -6 48 -57 111 -114 64 -56 116 -103 116
-103 0 -1 -16 -50 -35 -111 -38 -118 -41 -140 -24 -151 19 -12 36 19 68 124
l32 102 77 -61 c42 -33 112 -85 155 -116 43 -31 76 -61 74 -67 -2 -6 -15 -53
-28 -103 -19 -73 -21 -95 -11 -105 20 -20 37 8 62 105 l23 87 26 -17 c50 -32
196 -115 266 -150 39 -20 71 -37 73 -38 2 -2 -4 -40 -14 -84 -13 -61 -15 -84
-6 -93 19 -19 39 8 52 75 6 34 14 65 16 69 3 4 50 -15 106 -43 55 -28 106 -48
114 -45 35 13 9 38 -96 91 l-109 55 15 52 c24 84 90 209 140 265 l45 53 96
-81 c52 -44 100 -78 107 -76 30 10 10 39 -75 112 l-92 79 64 58 c35 31 67 57
72 58 4 0 7 9 7 20 0 35 -33 23 -108 -40 -39 -33 -73 -60 -77 -60 -3 0 -49 35
-103 78 -53 42 -125 97 -160 121 l-63 45 61 61 c33 33 60 68 60 78 0 33 -36
16 -99 -47 l-64 -65 -51 33 c-28 18 -97 58 -153 90 l-101 57 68 62 c37 34 68
70 69 80 2 34 -37 17 -107 -48z m69 -208 c70 -39 137 -79 150 -88 l23 -16 -45
-54 c-80 -95 -142 -200 -184 -311 -10 -27 -20 -48 -24 -48 -9 0 -211 153 -259
196 l-43 39 46 91 c44 87 177 264 199 264 6 0 68 -33 137 -73z m305 -194 c69
-50 203 -152 227 -173 5 -4 -14 -36 -43 -71 -55 -69 -107 -169 -136 -261 l-17
-57 -61 31 c-34 16 -116 62 -184 101 -135 78 -127 64 -91 162 39 105 184 325
215 325 6 0 47 -26 90 -57z"/>
<path d="M5855 2193 c-305 -41 -600 -162 -799 -327 -64 -53 -150 -162 -209
-264 -51 -89 -57 -112 -28 -112 13 0 30 19 52 58 125 222 252 340 483 447 195
91 385 143 561 153 101 6 110 9 110 27 0 18 -7 20 -70 21 -38 1 -83 0 -100 -3z"/>
<path d="M6238 1744 c-30 -16 -58 -61 -58 -94 0 -53 57 -110 110 -110 53 0
110 57 110 110 0 34 -28 78 -60 95 -36 19 -67 19 -102 -1z m89 -105 c16 -16 5
-39 -17 -39 -23 0 -34 16 -26 35 6 18 28 19 43 4z"/>
<path d="M5404 1186 c-36 -16 -74 -72 -74 -110 0 -68 62 -136 124 -136 68 0
136 62 136 124 0 45 -26 92 -63 114 -39 25 -78 27 -123 8z m107 -112 c17 -21
0 -49 -31 -49 -31 0 -48 28 -31 49 8 9 21 16 31 16 10 0 23 -7 31 -16z"/>
<path d="M2648 4371 c-165 -36 -231 -67 -192 -89 11 -6 27 -7 41 -1 58 22 195
52 268 58 183 17 431 -25 625 -107 91 -39 120 -41 120 -10 0 22 -216 106 -360
139 -129 30 -387 35 -502 10z"/>
<path d="M3085 4130 c-9 -14 13 -40 33 -40 30 0 148 -33 187 -52 22 -11 63
-38 92 -59 57 -43 83 -49 83 -20 0 21 -81 87 -148 120 -47 24 -181 61 -218 61
-13 0 -26 -5 -29 -10z"/>
<path d="M1376 2728 c-49 -79 -71 -320 -40 -442 47 -185 183 -375 372 -520 54
-41 66 -46 78 -35 17 17 13 22 -61 84 -144 120 -209 195 -274 316 -91 170
-106 307 -56 496 14 56 24 107 20 113 -10 16 -23 12 -39 -12z"/>
<path d="M1951 1806 c-9 -11 -5 -20 22 -46 97 -91 201 -135 342 -142 44 -3 50
-1 50 17 0 17 -9 21 -60 28 -105 15 -187 44 -242 86 -90 69 -99 73 -112 57z"/>
<path d="M180 975 l0 -505 140 0 140 0 0 -140 0 -140 855 0 855 0 0 25 0 25
-830 0 -830 0 0 115 0 115 690 0 690 0 0 25 0 25 -690 0 -690 0 0 340 0 340
-25 0 -25 0 0 -340 0 -340 -115 0 -115 0 0 480 0 480 -25 0 -25 0 0 -505z"/>
<path d="M1539 897 c-81 -54 -124 -172 -80 -216 27 -27 76 -27 120 0 38 23 37
34 -3 19 -37 -14 -79 -13 -94 2 -16 16 -15 63 2 97 38 72 136 120 128 62 -3
-16 1 -22 10 -19 18 6 22 46 8 64 -18 20 -52 17 -91 -9z"/>
<path d="M673 899 c-32 -9 -54 -29 -32 -29 12 0 9 -70 -7 -162 -5 -30 -3 -38
8 -38 12 0 18 23 28 95 13 99 20 112 60 116 85 8 79 -24 -16 -89 -17 -11 -16
-12 11 -8 38 5 65 -9 65 -34 0 -27 -33 -54 -72 -60 -40 -6 -50 -30 -13 -30 84
0 150 95 93 134 l-22 16 22 23 c42 45 22 77 -47 76 -26 0 -60 -5 -78 -10z"/>
<path d="M940 848 c-18 -35 -48 -85 -66 -112 -31 -46 -35 -66 -14 -66 4 0 17
15 27 33 13 21 28 33 44 34 13 1 38 5 56 8 25 4 33 2 38 -14 8 -25 44 -71 56
-71 15 0 10 20 -10 46 -10 13 -31 64 -47 114 -16 49 -34 90 -40 90 -6 0 -26
-28 -44 -62z m56 -23 c7 -19 14 -37 14 -39 0 -7 -70 -19 -76 -13 -6 6 33 87
42 87 3 0 12 -16 20 -35z"/>
<path d="M1173 895 c-17 -7 -34 -23 -38 -34 -12 -40 4 -59 66 -82 33 -12 62
-25 64 -30 12 -18 -48 -49 -97 -49 -35 0 -48 -4 -46 -12 8 -22 66 -21 114 3
77 37 72 71 -17 104 -61 24 -77 55 -38 75 29 16 92 17 97 2 6 -19 22 -14 22 7
0 33 -68 42 -127 16z"/>
<path d="M1376 902 c-8 -14 -26 -134 -26 -180 0 -70 24 -47 26 25 2 34 7 78
13 100 6 21 11 44 11 51 0 14 -16 16 -24 4z"/>
<path d="M1836 878 c-14 -98 -25 -202 -22 -206 3 -2 28 1 56 7 67 14 113 14
129 -1 11 -10 14 -10 18 -1 12 33 42 54 88 62 27 5 53 7 57 4 5 -2 17 -22 28
-44 11 -21 27 -39 36 -39 9 0 14 3 12 8 -1 4 -18 36 -36 72 -17 36 -38 89 -44
118 -7 28 -18 52 -25 52 -7 0 -25 -24 -39 -52 -49 -97 -95 -161 -106 -150 -7
7 -37 8 -81 5 l-70 -6 6 24 c5 22 20 150 19 166 0 4 -5 9 -11 11 -5 2 -12 -12
-15 -30z m310 -64 c5 -27 3 -32 -18 -37 -12 -4 -31 -7 -41 -7 -17 0 -17 2 -1
33 34 66 48 69 60 11z"/>
<path d="M2325 898 c-29 -9 -30 -11 -30 -76 0 -37 -2 -85 -5 -106 -3 -24 -1
-40 6 -43 7 -2 16 30 24 91 7 53 18 100 24 104 15 12 66 21 83 15 27 -11 13
-42 -32 -69 -52 -30 -57 -39 -16 -31 37 8 64 -12 59 -43 -3 -25 -32 -45 -80
-55 -35 -7 -37 -25 -2 -25 82 0 148 95 93 134 l-21 14 21 21 c23 23 27 51 9
69 -14 14 -90 14 -133 0z"/>
</g>
</svg>
