<?xml version="1.0" encoding="UTF-8"?>
<svg version="1.1" xmlns="http://www.w3.org/2000/svg" width="710" height="533">
<path d="M0 0 C1.04800781 0.30679688 2.09601563 0.61359375 3.17578125 0.9296875 C9.93970658 2.96813075 16.49777832 5.23973183 23 8 C24.7634375 8.7425 24.7634375 8.7425 26.5625 9.5 C27.696875 9.995 28.83125 10.49 30 11 C30.61617187 11.26167969 31.23234375 11.52335937 31.8671875 11.79296875 C47.6402651 18.6081287 62.30639941 27.13956051 77 36 C77.89178955 36.52295654 78.7835791 37.04591309 79.70239258 37.5847168 C81.84197155 38.90265743 83.23985276 40.23985276 85 42 C85.886875 42.515625 86.77375 43.03125 87.6875 43.5625 C88.450625 44.036875 89.21375 44.51125 90 45 C90 45.66 90 46.32 90 47 C90.721875 47.2475 91.44375 47.495 92.1875 47.75 C95.29939604 49.13306491 97.41258274 50.79122917 100 53 C100.54398438 53.42925781 101.08796875 53.85851562 101.6484375 54.30078125 C103.13812619 55.48623775 104.57342235 56.73930348 106 58 C106 58.66 106 59.32 106 60 C106.5775 60.061875 107.155 60.12375 107.75 60.1875 C110.89829784 61.32438533 111.98091594 63.36907229 114 66 C114.78375 66.61875 115.5675 67.2375 116.375 67.875 C119.17028744 70.13785174 121.29550677 72.57764147 123.5859375 75.33203125 C125.0757124 77.13558034 125.0757124 77.13558034 127.1875 79.1875 C129.02002974 81.02002974 130.56256173 82.84384259 132 85 C132 85.66 132 86.32 132 87 C132.66 87 133.32 87 134 87 C134.33 88.32 134.66 89.64 135 91 C135.66 91 136.32 91 137 91 C138.32983485 92.98570578 139.43978459 95.0559931 140.5859375 97.15234375 C142.27140224 99.35462226 143.30354986 99.63856094 146 100 C146 99.34 146 98.68 146 98 C148.97 97.505 148.97 97.505 152 97 C151.814375 95.2984375 151.814375 95.2984375 151.625 93.5625 C151.66534305 87.86404462 154.21955859 84.10621091 158 80 C165.01301204 73.95996441 171.97317615 73.02220621 181 73 C182.10601562 72.95359375 183.21203125 72.9071875 184.3515625 72.859375 C188.71121172 73.02741287 192.50934623 73.93092222 196.6875 75.125 C197.47406982 75.34583252 198.26063965 75.56666504 199.07104492 75.79418945 C204.8881801 77.50266464 210.19004173 79.75328401 215.51953125 82.66796875 C219.63923924 84.88028438 222.79473089 86.25094769 227.5 86 C241.24336929 85.78039889 255.00683138 87.89143487 268.5625 89.9375 C269.61961182 90.09508789 270.67672363 90.25267578 271.76586914 90.41503906 C278.96660663 91.54221905 285.94946701 93.16865034 293 95 C295.14402992 95.48717255 297.28947476 95.96825704 299.4375 96.4375 C306.07370502 97.96043409 312.52589498 99.89967988 319 102 C320.14984375 102.36996094 321.2996875 102.73992187 322.484375 103.12109375 C325.65791913 104.15964628 328.82053588 105.22216304 331.97802734 106.30810547 C333.31740332 106.76642369 334.65887659 107.21866156 336.00244141 107.66455078 C363.19405328 116.73274268 390.07929179 130.21358881 414.34765625 145.36328125 C416.85254434 146.96340576 416.85254434 146.96340576 419 148 C419 148.66 419 149.32 419 150 C419.78375 150.144375 420.5675 150.28875 421.375 150.4375 C424 151 424 151 426 152 C426 152.66 426 153.32 426 154 C427.32 154.33 428.64 154.66 430 155 C430 155.66 430 156.32 430 157 C430.72574219 157.268125 431.45148437 157.53625 432.19921875 157.8125 C434.96864024 158.98670381 437.30919434 160.3394324 439.8125 162 C440.60269531 162.515625 441.39289062 163.03125 442.20703125 163.5625 C442.79871094 164.036875 443.39039063 164.51125 444 165 C444 165.66 444 166.32 444 167 C444.99 167 445.98 167 447 167 C448.6875 168.375 448.6875 168.375 450 170 C450 170.66 450 171.32 450 172 C450.99 172 451.98 172 453 172 C453 172.66 453 173.32 453 174 C454.32 174.33 455.64 174.66 457 175 C457 175.66 457 176.32 457 177 C457.86625 177.4021875 457.86625 177.4021875 458.75 177.8125 C461.05550043 179.02929189 463.02056192 180.30333879 465 182 C465 182.66 465 183.32 465 184 C465.66 184 466.32 184 467 184 C467 184.66 467 185.32 467 186 C467.928125 186.4640625 467.928125 186.4640625 468.875 186.9375 C470.25 187.625 471.625 188.3125 473 189 C473 189.66 473 190.32 473 191 C473.66 191 474.32 191 475 191 C475 191.66 475 192.32 475 193 C475.66 193 476.32 193 477 193 C477 193.66 477 194.32 477 195 C477.66 195 478.32 195 479 195 C479 195.66 479 196.32 479 197 C479.66 197 480.32 197 481 197 C481 197.66 481 198.32 481 199 C481.58265625 199.2475 482.1653125 199.495 482.765625 199.75 C485.33114236 201.18525446 486.83724798 202.77663013 488.75 205 C489.36359375 205.70125 489.9771875 206.4025 490.609375 207.125 C492 209 492 209 492 211 C492.66 211 493.32 211 494 211 C498 215.47058824 498 215.47058824 498 218 C498.66 218 499.32 218 500 218 C500.66 218.99 501.32 219.98 502 221 C504.11840256 221.75906853 504.11840256 221.75906853 506.5 222.125 C510.86597938 222.93298969 510.86597938 222.93298969 513 224 C513 224.99 513 225.98 513 227 C513.66 227 514.32 227 515 227 C515.84511824 228.72343755 516.67563354 230.45404053 517.5 232.1875 C517.9640625 233.15042969 518.428125 234.11335937 518.90625 235.10546875 C519.99592921 237.98922693 520.22277524 239.95354861 520 243 C520.66 242.773125 521.32 242.54625 522 242.3125 C528.82692866 241.6013616 534.09412243 245.49319069 539.23828125 249.5 C542.64986359 252.4047619 542.64986359 252.4047619 544 254 C544 254.99 544 255.98 544 257 C544.66 257 545.32 257 546 257 C546 257.99 546 258.98 546 260 C546.66 260 547.32 260 548 260 C548 260.99 548 261.98 548 263 C548.66 263 549.32 263 550 263 C550 263.99 550 264.98 550 266 C550.66 266 551.32 266 552 266 C555.4488098 274.1817509 558.59030865 282.42113005 561.3125 290.875 C561.56660645 291.64626221 561.82071289 292.41752441 562.08251953 293.2121582 C564.75928344 301.7092004 565.2102217 310.13588058 565.3125 319 C565.34150391 319.83789062 565.37050781 320.67578125 565.40039062 321.5390625 C565.47621208 329.07454878 563.07666152 334.46198408 559.3125 340.875 C555.94384522 343.97052061 552.54384051 345.42643325 548 346 C543.75803487 345.21472272 540.561822 343.374548 537 341 C536.97873047 341.99 536.97873047 341.99 536.95703125 343 C536.17954576 359.13807713 534.32722192 377.69884872 523 390 C522.07380859 391.01513672 522.07380859 391.01513672 521.12890625 392.05078125 C515.92208758 397.1060501 509.54696134 400.02113259 503 403 C503 403.33 503 403.66 503 404 C501.15535156 404.29003906 501.15535156 404.29003906 499.2734375 404.5859375 C497.64058272 404.84869574 496.00777254 405.11173125 494.375 405.375 C493.16263672 405.56449219 493.16263672 405.56449219 491.92578125 405.7578125 C487.4264278 406.48941469 483.32289249 407.52330945 479 409 C471.0168977 410.53230163 463.12419945 411.33694836 455 411 C455 411.66 455 412.32 455 413 C455.721875 413.226875 456.44375 413.45375 457.1875 413.6875 C462.07187285 415.966874 465.9971581 419.99289526 468 425 C468.37276459 429.27245565 468.1976796 433.18615084 465.78515625 436.83984375 C453.50930688 448.63546429 431.79931006 447.17960353 416.0625 447.25 C415.3969812 447.25535767 414.7314624 447.26071533 414.04577637 447.26623535 C398.04367983 447.36369506 382.58648853 445.13747756 366.89819336 442.13305664 C364.56865797 441.68867469 362.23674128 441.25889564 359.90429688 440.83007812 C344.80574713 438.00103526 330.0070753 434.42654165 316 428 C315.01 427.55269531 314.02 427.10539062 313 426.64453125 C311.1544257 425.80764184 309.31154026 424.96477053 307.47265625 424.11328125 C305.00684869 423.00308353 302.51760178 421.98632341 300 421 C300 420.34 300 419.68 300 419 C298.02 418.34 296.04 417.68 294 417 C294 416.34 294 415.68 294 415 C292.9171875 414.6596875 292.9171875 414.6596875 291.8125 414.3125 C286.86574132 412.00401262 283.15825901 407.99807349 281 403 C280.76555744 399.97772965 280.85294971 397.023674 281 394 C280.13689209 393.66621338 279.27378418 393.33242676 278.38452148 392.98852539 C268.6101168 389.15007753 259.03649979 384.95249365 249.49975586 380.55883789 C247.04389296 379.42893923 244.5836546 378.3089748 242.12304688 377.18945312 C240.53097794 376.45892596 238.93917139 375.72782663 237.34765625 374.99609375 C236.26618065 374.50525551 236.26618065 374.50525551 235.16285706 374.00450134 C230.81459506 371.98918444 226.76675699 369.71261999 222.74034119 367.11195374 C220.39311912 365.61224646 217.96016774 364.30418531 215.5 363 C212.0665037 361.14198526 208.65783841 359.263124 205.3125 357.25 C204.34763672 356.66992188 204.34763672 356.66992188 203.36328125 356.078125 C202.68845703 355.54445313 202.68845703 355.54445313 202 355 C202 354.34 202 353.68 202 353 C201.21625 352.855625 200.4325 352.71125 199.625 352.5625 C197 352 197 352 195 351 C195 350.34 195 349.68 195 349 C193.68 348.67 192.36 348.34 191 348 C191 347.34 191 346.68 191 346 C190.27425781 345.731875 189.54851562 345.46375 188.80078125 345.1875 C186.03135976 344.01329619 183.69080566 342.6605676 181.1875 341 C180.39730469 340.484375 179.60710937 339.96875 178.79296875 339.4375 C177.90544922 338.7259375 177.90544922 338.7259375 177 338 C177 337.34 177 336.68 177 336 C176.01 336 175.02 336 174 336 C172.3125 334.625 172.3125 334.625 171 333 C171 332.34 171 331.68 171 331 C170.01 331 169.02 331 168 331 C168 330.34 168 329.68 168 329 C166.68 328.67 165.36 328.34 164 328 C164 327.34 164 326.68 164 326 C163.13375 325.5978125 163.13375 325.5978125 162.25 325.1875 C159.94449957 323.97070811 157.97943808 322.69666121 156 321 C156 320.34 156 319.68 156 319 C155.34 319 154.68 319 154 319 C154 318.34 154 317.68 154 317 C153.071875 316.5359375 153.071875 316.5359375 152.125 316.0625 C150.75 315.375 149.375 314.6875 148 314 C148 313.34 148 312.68 148 312 C147.34 312 146.68 312 146 312 C146 311.34 146 310.68 146 310 C145.34 310 144.68 310 144 310 C144 309.34 144 308.68 144 308 C143.34 308 142.68 308 142 308 C142 307.34 142 306.68 142 306 C141.34 306 140.68 306 140 306 C140 305.34 140 304.68 140 304 C139.41734375 303.7525 138.8346875 303.505 138.234375 303.25 C135.66885764 301.81474554 134.16275202 300.22336987 132.25 298 C131.63640625 297.29875 131.0228125 296.5975 130.390625 295.875 C129 294 129 294 129 292 C125.48062941 291.18345539 122.3546954 290.94128948 118.75 291.0625 C107.97067603 291.13465076 97.24547412 288.13122086 89 281 C87.48212891 280.22462891 87.48212891 280.22462891 85.93359375 279.43359375 C80.7641497 276.52632801 76.86987216 272.26679577 72.75 268.0625 C71.94820312 267.26392578 71.14640625 266.46535156 70.3203125 265.64257812 C66.64561706 261.93408532 63.5740332 258.56867993 61 254 C60.360625 252.9275 59.72125 251.855 59.0625 250.75 C52.35023941 238.86263773 47.62826072 225.66639324 50.43359375 211.8671875 C52.64906912 205.72990791 57.74147402 201.40028611 63.125 198.0625 C68.42131965 196.06572661 74.4444746 196.77443731 80 197 C80 193.37 80 189.74 80 186 C79.25878906 185.82984375 78.51757812 185.6596875 77.75390625 185.484375 C75.49676271 184.96498334 73.24031821 184.44254943 70.984375 183.91796875 C68.22753045 183.27853013 65.46684697 182.6597685 62.703125 182.05078125 C55.63216471 180.47149247 48.86917834 178.83649772 42.19921875 175.9375 C39.93292524 174.97140685 37.65718984 174.1915711 35.3125 173.4375 C31.43209135 172.17347897 27.72974915 170.66506658 24 169 C23.38253906 168.73703125 22.76507813 168.4740625 22.12890625 168.203125 C6.35276625 161.40357884 -8.31022229 152.85813424 -23 144 C-24.33768433 143.21556519 -24.33768433 143.21556519 -25.70239258 142.4152832 C-27.84197155 141.09734257 -29.23985276 139.76014724 -31 138 C-31.886875 137.484375 -32.77375 136.96875 -33.6875 136.4375 C-34.450625 135.963125 -35.21375 135.48875 -36 135 C-36 134.34 -36 133.68 -36 133 C-37.0828125 132.62875 -37.0828125 132.62875 -38.1875 132.25 C-41.29939604 130.86693509 -43.41258274 129.20877083 -46 127 C-46.54398438 126.57074219 -47.08796875 126.14148438 -47.6484375 125.69921875 C-49.13812619 124.51376225 -50.57342235 123.26069652 -52 122 C-52 121.34 -52 120.68 -52 120 C-52.86625 119.9071875 -52.86625 119.9071875 -53.75 119.8125 C-56.89829784 118.67561467 -57.98091594 116.63092771 -60 114 C-60.78375 113.38125 -61.5675 112.7625 -62.375 112.125 C-65.17028744 109.86214826 -67.29550677 107.42235853 -69.5859375 104.66796875 C-71.0757124 102.86441966 -71.0757124 102.86441966 -73.1875 100.8125 C-75.02002974 98.97997026 -76.56256173 97.15615741 -78 95 C-78 94.34 -78 93.68 -78 93 C-78.66 93 -79.32 93 -80 93 C-80.33 91.68 -80.66 90.36 -81 89 C-81.66 89 -82.32 89 -83 89 C-84.2890625 87.3203125 -84.2890625 87.3203125 -85.625 85.125 C-86.07101563 84.40570313 -86.51703125 83.68640625 -86.9765625 82.9453125 C-88 81 -88 81 -88 79 C-88.66 79 -89.32 79 -90 79 C-90.66 76.69 -91.32 74.38 -92 72 C-92.66 72 -93.32 72 -94 72 C-101.37229205 57.46691608 -106.34465255 41.41946713 -102.1484375 25.2890625 C-99.47222866 17.62454603 -95.76851704 10.68504844 -89 6 C-88.34 6 -87.68 6 -87 6 C-87 5.34 -87 4.68 -87 4 C-60.43669092 -11.09278925 -28.43329488 -8.39998864 0 0 Z M-75 5 C-75 5.66 -75 6.32 -75 7 C-76.175625 7.2165625 -76.175625 7.2165625 -77.375 7.4375 C-79.96421018 7.87798925 -79.96421018 7.87798925 -82 9 C-82 9.66 -82 10.32 -82 11 C-83.32 11.33 -84.64 11.66 -86 12 C-86 12.66 -86 13.32 -86 14 C-86.99 14.33 -87.98 14.66 -89 15 C-95.37256847 23.81191961 -97.08395302 33.32809144 -96 44 C-93.9739972 54.36085551 -90.05306332 63.76366295 -85 73 C-84.50757813 74.03769531 -84.01515625 75.07539063 -83.5078125 76.14453125 C-82.14523321 78.72495991 -81.07046671 80.04543728 -79 82 C-77.15625352 84.60752565 -75.38985119 87.25912692 -73.62109375 89.91796875 C-73.08613281 90.60503906 -72.55117187 91.29210937 -72 92 C-71.34 92 -70.68 92 -70 92 C-69.773125 92.53625 -69.54625 93.0725 -69.3125 93.625 C-67.54429911 96.82460161 -65.46329797 99.29037223 -63 102 C-62.34 102 -61.68 102 -61 102 C-60.67 102.99 -60.34 103.98 -60 105 C-59.34 105 -58.68 105 -58 105 C-57.67 105.99 -57.34 106.98 -57 108 C-56.34 108 -55.68 108 -55 108 C-55 108.66 -55 109.32 -55 110 C-53.36395804 111.37073786 -51.69321939 112.70055256 -50 114 C-49.443125 114.5775 -48.88625 115.155 -48.3125 115.75 C-47.06070402 117.22988506 -47.06070402 117.22988506 -45 117 C-44.67 117.99 -44.34 118.98 -44 120 C-41.49552484 121.21869929 -41.49552484 121.21869929 -39 122 C-39 122.66 -39 123.32 -39 124 C-38.195625 124.268125 -37.39125 124.53625 -36.5625 124.8125 C-35.716875 125.204375 -34.87125 125.59625 -34 126 C-33.67 126.99 -33.34 127.98 -33 129 C-29.78282646 131.3300037 -29.78282646 131.3300037 -26 132 C-26 132.66 -26 133.32 -26 134 C-23.48738092 135.71287809 -20.97827346 137.31121226 -18.375 138.875 C-16.94480584 139.74656498 -15.51511078 140.61894952 -14.0859375 141.4921875 C-13.04131348 142.12592285 -13.04131348 142.12592285 -11.97558594 142.77246094 C-10.21617339 143.86567971 -8.49900445 145.0262281 -6.7890625 146.1953125 C-4.20776045 147.86556677 -1.85134541 148.89610922 1 150 C2.97508813 151.11670514 4.93276252 152.26459035 6.875 153.4375 C12.12626202 156.53210763 17.30205044 158.96936216 22.99609375 161.14453125 C24.11113281 161.57121094 25.22617188 161.99789062 26.375 162.4375 C27.41398437 162.82808594 28.45296875 163.21867188 29.5234375 163.62109375 C32.12048423 164.65115835 34.59485759 165.74701999 37.1171875 166.93359375 C42.81193153 169.48572719 48.72795138 171.03877274 54.75 172.625 C55.84054688 172.9240625 56.93109375 173.223125 58.0546875 173.53125 C65.6467557 175.55939115 73.21325346 176.95590442 81 178 C81.11480713 177.41210693 81.22961426 176.82421387 81.34790039 176.21850586 C83.64859981 164.69253004 86.23447594 154.17717664 91.64453125 143.703125 C93.14941557 141.20601913 93.14941557 141.20601913 93 139 C93.66 139 94.32 139 95 139 C95.33 137.68 95.66 136.36 96 135 C96.66 135 97.32 135 98 135 C98.33 133.68 98.66 132.36 99 131 C99.66 131 100.32 131 101 131 C102.36176922 129.35648543 103.68962066 127.68477344 105 126 C107.58350893 123.29046625 109.88143016 121.07904656 113 119 C113 118.34 113 117.68 113 117 C113.77537109 116.64228516 113.77537109 116.64228516 114.56640625 116.27734375 C117.81883873 114.57020825 120.86401187 112.5672304 123.9375 110.5625 C125.15447239 109.77140342 126.37191217 108.98102532 127.58984375 108.19140625 C128.16718262 107.81516113 128.74452148 107.43891602 129.33935547 107.05126953 C130.8437248 106.09892987 132.39085751 105.21498746 133.94140625 104.33984375 C134.62074219 103.89769531 135.30007812 103.45554687 136 103 C136.23354986 100.93398768 136.23354986 100.93398768 134.72265625 99.69921875 C133.86994141 98.85810547 133.86994141 98.85810547 133 98 C131.15625352 95.39247435 129.38985119 92.74087308 127.62109375 90.08203125 C127.08613281 89.39496094 126.55117187 88.70789063 126 88 C125.34 88 124.68 88 124 88 C123.773125 87.46375 123.54625 86.9275 123.3125 86.375 C121.54429911 83.17539839 119.46329797 80.70962777 117 78 C116.34 78 115.68 78 115 78 C114.67 77.01 114.34 76.02 114 75 C113.34 75 112.68 75 112 75 C111.67 74.01 111.34 73.02 111 72 C110.34 72 109.68 72 109 72 C109 71.34 109 70.68 109 70 C107.36395804 68.62926214 105.69321939 67.29944744 104 66 C103.443125 65.4225 102.88625 64.845 102.3125 64.25 C101.06070402 62.77011494 101.06070402 62.77011494 99 63 C98.67 62.01 98.34 61.02 98 60 C95.49552484 58.78130071 95.49552484 58.78130071 93 58 C93 57.34 93 56.68 93 56 C92.195625 55.731875 91.39125 55.46375 90.5625 55.1875 C89.716875 54.795625 88.87125 54.40375 88 54 C87.67 53.01 87.34 52.02 87 51 C83.78282646 48.6699963 83.78282646 48.6699963 80 48 C80 47.34 80 46.68 80 46 C77.48738092 44.28712191 74.97827346 42.68878774 72.375 41.125 C70.94480584 40.25343502 69.51511078 39.38105048 68.0859375 38.5078125 C67.38952148 38.08532227 66.69310547 37.66283203 65.97558594 37.22753906 C64.21617339 36.13432029 62.49900445 34.9737719 60.7890625 33.8046875 C58.20776045 32.13443323 55.85134541 31.10389078 53 30 C51.02491187 28.88329486 49.06723748 27.73540965 47.125 26.5625 C41.87373798 23.46789237 36.69794956 21.03063784 31.00390625 18.85546875 C29.88886719 18.42878906 28.77382812 18.00210938 27.625 17.5625 C26.58601563 17.17191406 25.54703125 16.78132813 24.4765625 16.37890625 C21.87386155 15.34659902 19.38897368 14.24883998 16.859375 13.0625 C-11.80004851 0.22879688 -44.76647375 -2.34523848 -75 5 Z M165 84 C164.01 84.495 164.01 84.495 163 85 C163 85.66 163 86.32 163 87 C162.34 87 161.68 87 161 87 C160.34 88.98 159.68 90.96 159 93 C163.03282504 94.34427501 166.07112981 93.18766066 170.0625 92.1875 C178.65218009 90.14721048 187.16255797 89.02352313 195.94238281 88.20556641 C199.30360244 87.8697635 202.6500297 87.43286133 206 87 C198.31246582 80.4562209 186.95127029 79.32385348 177.21484375 79.59765625 C172.62483937 80.17210394 168.97048765 81.69006677 165 84 Z M173 98 C171.63823424 98.30434187 170.27623123 98.60762307 168.9140625 98.91015625 C167.40096309 99.25225683 165.88794306 99.59470866 164.375 99.9375 C163.65795898 100.09524902 162.94091797 100.25299805 162.20214844 100.41552734 C157.54029655 101.48794689 153.37474732 103.0184968 149 105 C148.0821875 105.35320312 147.164375 105.70640625 146.21875 106.0703125 C140.07395905 108.45406761 134.40566713 111.3292798 128.75 114.6875 C128.08162109 115.08018066 127.41324219 115.47286133 126.72460938 115.87744141 C125.11168275 116.85828658 123.54987725 117.92228481 122 119 C122 119.66 122 120.32 122 121 C120.35 121.66 118.7 122.32 117 123 C117 123.66 117 124.32 117 125 C116.4225 125.268125 115.845 125.53625 115.25 125.8125 C112.94449957 127.02929189 110.97943808 128.30333879 109 130 C109 130.66 109 131.32 109 132 C108.34 132 107.68 132 107 132 C107 132.99 107 133.98 107 135 C106.34 135 105.68 135 105 135 C104.67 136.32 104.34 137.64 104 139 C103.34 139 102.68 139 102 139 C100.40222476 141.17751179 100.40222476 141.17751179 98.875 143.875 C98.33617187 144.77992188 97.79734375 145.68484375 97.2421875 146.6171875 C95.8459107 148.84772022 95.8459107 148.84772022 96 151 C95.01 151.495 95.01 151.495 94 152 C93.26480478 153.97583715 92.60927518 155.98177598 92 158 C91.67 158.9075 91.34 159.815 91 160.75 C86.70619469 174.70486726 86.79958132 188.61344384 88 203 C85.64852754 204.17573623 84.5276702 204.02764863 81.9296875 203.8515625 C71.27058478 202.90083936 71.27058478 202.90083936 61.9375 207.125 C57.06678951 212.78312327 56.48553517 218.42692303 56.62109375 225.7109375 C57.61477668 234.33651512 61.53583751 242.03337515 66.5703125 249 C68 251 68 251 69.4609375 253.484375 C78.42885924 268.14260241 94.74337377 279.25085262 111.2578125 283.59375 C113.5895427 283.93919151 115.75219538 284.0843845 118.1015625 284.140625 C118.83890625 284.15996094 119.57625 284.17929687 120.3359375 284.19921875 C121.86952266 284.23324026 123.4035397 284.2513151 124.9375 284.25390625 C127.1640625 284.328125 127.1640625 284.328125 131 285 C132.8984375 287.546875 132.8984375 287.546875 134 290 C134.66 290 135.32 290 136 290 C136 290.66 136 291.32 136 292 C136.66 292 137.32 292 138 292 C138 292.66 138 293.32 138 294 C138.66 294 139.32 294 140 294 C140.66 295.32 141.32 296.64 142 298 C142.66 298 143.32 298 144 298 C144 298.66 144 299.32 144 300 C144.66 300 145.32 300 146 300 C146 300.66 146 301.32 146 302 C146.66 302 147.32 302 148 302 C148 302.66 148 303.32 148 304 C148.66 304 149.32 304 150 304 C150 304.66 150 305.32 150 306 C150.66 306 151.32 306 152 306 C152 306.66 152 307.32 152 308 C152.66 308 153.32 308 154 308 C154 308.66 154 309.32 154 310 C156.63684747 312.39820305 156.63684747 312.39820305 160 313 C160 313.66 160 314.32 160 315 C160.66 315 161.32 315 162 315 C162 315.66 162 316.32 162 317 C164.63684747 319.39820305 164.63684747 319.39820305 168 320 C168 320.66 168 321.32 168 322 C170.63684747 324.39820305 170.63684747 324.39820305 174 325 C174 325.66 174 326.32 174 327 C176.63684747 329.39820305 176.63684747 329.39820305 180 330 C180 330.66 180 331.32 180 332 C181.32 332.33 182.64 332.66 184 333 C184 333.66 184 334.32 184 335 C184.94875 335.515625 185.8975 336.03125 186.875 336.5625 C190.93232035 338.87394311 194.68873854 341.5528812 198.49609375 344.25 C204.28278699 348.86889411 204.28278699 348.86889411 211 351 C211 351.66 211 352.32 211 353 C213.31 353.66 215.62 354.32 218 355 C218 355.66 218 356.32 218 357 C219.26691507 357.67408308 220.53870749 358.33900497 221.8125 359 C222.52019531 359.37125 223.22789062 359.7425 223.95703125 360.125 C226.08920729 361.19685358 226.08920729 361.19685358 229 361 C229 361.66 229 362.32 229 363 C229.61520508 363.28721924 230.23041016 363.57443848 230.86425781 363.87036133 C233.66174911 365.17967379 236.45588193 366.49600531 239.25 367.8125 C240.21808594 368.26431641 241.18617188 368.71613281 242.18359375 369.18164062 C243.11816406 369.62314453 244.05273438 370.06464844 245.015625 370.51953125 C245.87446289 370.92276611 246.73330078 371.32600098 247.61816406 371.74145508 C250 373 250 373 252.07714844 374.5769043 C254.5491864 376.40645093 257.18777039 377.07506333 260.09765625 377.98046875 C264.58958991 379.55838892 268.9008361 381.53181427 273.23925781 383.48730469 C277.11007193 385.22053337 280.96258089 386.68405896 285 388 C286.63497688 388.68499031 288.2612201 389.39146368 289.875 390.125 C290.65617188 390.47820312 291.43734375 390.83140625 292.2421875 391.1953125 C292.82226562 391.46085937 293.40234375 391.72640625 294 392 C294 392.66 294 393.32 294 394 C292.35 394.66 290.7 395.32 289 396 C288.0636079 399.29945591 288.0636079 399.29945591 288 403 C290.18498756 405.53191499 290.18498756 405.53191499 293 407 C293.66 407 294.32 407 295 407 C295 407.66 295 408.32 295 409 C296.65 409.66 298.3 410.32 300 411 C300 411.66 300 412.32 300 413 C301.26691507 413.67408308 302.53870749 414.33900497 303.8125 415 C304.52019531 415.37125 305.22789062 415.7425 305.95703125 416.125 C308.08920729 417.19685358 308.08920729 417.19685358 311 417 C311 417.66 311 418.32 311 419 C312.64935547 419.58007812 312.64935547 419.58007812 314.33203125 420.171875 C315.82555911 420.69780799 317.31904588 421.22385765 318.8125 421.75 C319.97531494 422.15943848 319.97531494 422.15943848 321.16162109 422.57714844 C326.29368742 424.38771329 331.41004731 426.2352308 336.5078125 428.140625 C367.10832869 438.69252714 399.89583936 440.9873422 432 440 C432.97686768 440.00990967 433.95373535 440.01981934 434.96020508 440.0300293 C439.6883683 439.98305781 439.6883683 439.98305781 443.50268555 437.51513672 C444.76266256 435.49927701 445.67427714 433.51646399 446.5625 431.3125 C446.89056641 430.60416016 447.21863281 429.89582031 447.55664062 429.16601562 C449.35611591 425.14780587 450.49352937 421.4056007 451 417 C450.34 417 449.68 417 449 417 C449 416.34 449 415.68 449 415 C444.64180239 412.82942787 440.70417996 412.78264185 435.9453125 412.91015625 C434.34375348 412.93061257 432.74219081 412.95078524 431.140625 412.97070312 C428.64860515 413.01374445 426.15683156 413.06180183 423.66503906 413.11645508 C401.26580018 413.57170593 378.10860369 409.62089902 361 394 C360.34 394 359.68 394 359 394 C358.74089844 393.4225 358.48179687 392.845 358.21484375 392.25 C356.90662543 389.82706189 355.41134269 388.03571496 353.5625 386 C350.1031591 382.17455175 350.1031591 382.17455175 348.76953125 379.91796875 C346.11156158 377.03703474 342.7885305 376.33894864 339.125 375.3125 C338.06345703 374.99442383 338.06345703 374.99442383 336.98046875 374.66992188 C334.04468838 373.80340197 331.17436054 373.03165831 328.16015625 372.484375 C325.11821202 371.80227539 323.35707793 369.97484908 321 368 C320.34 368 319.68 368 319 368 C318.62875 366.9171875 318.62875 366.9171875 318.25 365.8125 C317.12024444 362.91948221 317.12024444 362.91948221 315 360.625 C310.90367037 355.24856736 310.58729207 349.50014983 311 343 C312.37957395 337.02184624 314.98538033 334.34307978 320 331 C325.26676209 329.49521083 329.91022033 330.20636916 335 332 C337.9375 334.125 337.9375 334.125 340 336 C340.66 336 341.32 336 342 336 C342.2475 336.721875 342.495 337.44375 342.75 338.1875 C343.84138853 341.0509262 343.84138853 341.0509262 345.90625 343.05859375 C348.77284202 347.08572769 349.64002539 351.10699587 350.75 355.875 C350.97042969 356.74769531 351.19085938 357.62039063 351.41796875 358.51953125 C352.86141447 364.48158967 353.99100519 370.02698443 352 376 C354.6241132 379.96140166 357.85713646 383.44241838 361 387 C361.57363281 387.6703125 362.14726562 388.340625 362.73828125 389.03125 C373.71119303 401.01160033 392.32081455 407.19726558 408.23535156 408.20483398 C411.93038561 408.3060431 415.61610572 408.32830351 419.3125 408.3125 C419.98008331 408.31100952 420.64766663 408.30951904 421.33547974 408.3079834 C441.37920288 408.22845306 461.76314228 406.96797003 481 401 C481.2773501 397.81509993 481.2773501 397.81509993 479 395 C478.34 395 477.68 395 477 395 C475.79938736 387.40482006 475.68156057 382.06410114 479.28515625 375.15625 C480.21430127 373.03651789 480.21430127 373.03651789 479.421875 371.015625 C469.75348176 357.30988073 453.16292201 349.10372607 437.0703125 346.3203125 C433.71723381 345.82780798 430.36707386 345.38365459 427 345 C427.33 343.35 427.66 341.7 428 340 C449.88931167 342.99745529 467.62603307 351.01107439 483 367 C486.14051252 365.59723774 488.36749893 363.90384137 490.875 361.5625 C494.10595643 358.6582695 497.01379281 356.69413806 501 355 C499.72274466 351.48425593 498.10189097 348.35068813 496.18212891 345.14306641 C488.67819238 332.5926026 482.79698223 317.86292417 486 303 C486.99 303.33 487.98 303.66 489 304 C489.09704224 304.85996582 489.09704224 304.85996582 489.19604492 305.73730469 C491.08037631 321.92816365 491.08037631 321.92816365 497 337 C497.47614746 337.95640381 497.47614746 337.95640381 497.96191406 338.93212891 C501.76998764 347.28618551 501.76998764 347.28618551 508.3359375 353.1015625 C510.62653998 353.31264191 512.71154462 353.18274417 515 353 C517.40332705 353.51341793 519.65559042 354.25178418 522 355 C522 355.66 522 356.32 522 357 C522.66 357 523.32 357 524 357 C524.66 358.32 525.32 359.64 526 361 C529.24211026 357.89885105 530.10544104 355.95287972 530.5 351.5 C530.5825 350.613125 530.665 349.72625 530.75 348.8125 C530.8325 347.884375 530.915 346.95625 531 346 C531.16299232 344.16633635 531.32949024 342.3329799 531.5 340.5 C531.5721875 339.6853125 531.644375 338.870625 531.71875 338.03125 C532 336 532 336 533 334 C535.99735198 308.60431023 530.0071562 286.50462953 521 263 C520.34 263 519.68 263 519 263 C518.67 261.02 518.34 259.04 518 257 C517.40832031 256.84144531 516.81664062 256.68289063 516.20703125 256.51953125 C510.83356026 254.93291094 507.81172687 253.27375437 504 249 C503.34 249 502.68 249 502 249 C502 248.34 502 247.68 502 247 C501.34 247 500.68 247 500 247 C499.566875 245.6696875 499.566875 245.6696875 499.125 244.3125 C498.10702557 241.12818663 498.10702557 241.12818663 496.9375 238.6875 C495.83781608 235.53507277 495.80183435 233.0165371 495.875 229.6875 C495.89304687 228.61886719 495.91109375 227.55023438 495.9296875 226.44921875 C495.96449219 225.23685547 495.96449219 225.23685547 496 224 C495.34 224 494.68 224 494 224 C493.34 222.68 492.68 221.36 492 220 C491.34 220 490.68 220 490 220 C489.5359375 218.824375 489.5359375 218.824375 489.0625 217.625 C488.07124962 215.07669872 488.07124962 215.07669872 487 213 C486.34 213 485.68 213 485 213 C485 212.34 485 211.68 485 211 C484.34 211 483.68 211 483 211 C483 210.34 483 209.68 483 209 C482.34 209 481.68 209 481 209 C480.34 207.68 479.68 206.36 479 205 C478.34 205 477.68 205 477 205 C477 204.34 477 203.68 477 203 C476.34 203 475.68 203 475 203 C475 202.34 475 201.68 475 201 C474.34 201 473.68 201 473 201 C473 200.34 473 199.68 473 199 C472.34 199 471.68 199 471 199 C471 198.34 471 197.68 471 197 C470.34 197 469.68 197 469 197 C469 196.34 469 195.68 469 195 C468.34 195 467.68 195 467 195 C467 194.34 467 193.68 467 193 C464.36315253 190.60179695 464.36315253 190.60179695 461 190 C461 189.34 461 188.68 461 188 C460.34 188 459.68 188 459 188 C459 187.34 459 186.68 459 186 C456.36315253 183.60179695 456.36315253 183.60179695 453 183 C453 182.34 453 181.68 453 181 C450.36315253 178.60179695 450.36315253 178.60179695 447 178 C447 177.34 447 176.68 447 176 C444.36315253 173.60179695 444.36315253 173.60179695 441 173 C441 172.34 441 171.68 441 171 C439.68 170.67 438.36 170.34 437 170 C437 169.34 437 168.68 437 168 C436.05125 167.484375 435.1025 166.96875 434.125 166.4375 C430.06767965 164.12605689 426.31126146 161.4471188 422.50390625 158.75 C416.71721301 154.13110589 416.71721301 154.13110589 410 152 C410 151.34 410 150.68 410 150 C407.69 149.34 405.38 148.68 403 148 C403 147.34 403 146.68 403 146 C401.73308493 145.32591692 400.46129251 144.66099503 399.1875 144 C398.47980469 143.62875 397.77210938 143.2575 397.04296875 142.875 C394.91079271 141.80314642 394.91079271 141.80314642 392 142 C392 141.34 392 140.68 392 140 C391.38479492 139.71278076 390.76958984 139.42556152 390.13574219 139.12963867 C387.33825089 137.82032621 384.54411807 136.50399469 381.75 135.1875 C380.29787109 134.50977539 380.29787109 134.50977539 378.81640625 133.81835938 C377.88183594 133.37685547 376.94726562 132.93535156 375.984375 132.48046875 C375.12553711 132.07723389 374.26669922 131.67399902 373.38183594 131.25854492 C371 130 371 130 368.92285156 128.4230957 C366.4508136 126.59354907 363.81222961 125.92493667 360.90234375 125.01953125 C356.41041009 123.44161108 352.0991639 121.46818573 347.76074219 119.51269531 C343.89081008 117.77986156 340.04501398 116.29262155 336 115 C334.26903637 114.35899847 332.53984355 113.71319371 330.8125 113.0625 C326.14909956 111.35637789 321.46900498 109.97044771 316.66796875 108.7109375 C314.17581894 108.04685073 311.71500288 107.3203356 309.25 106.5625 C299.62597467 103.66001617 290.03332369 100.95106984 280.07421875 99.4921875 C277.4705333 99.07533316 274.91295576 98.57783977 272.33203125 98.04296875 C239.98222277 91.50010778 205.2211427 90.3486667 173 98 Z M522 249 C522.50712033 252.71888239 523.11608215 255.73454239 525 259 C525.66 259 526.32 259 527 259 C527.061875 259.763125 527.12375 260.52625 527.1875 261.3125 C527.92880246 264.6768727 528.91500739 267.15902465 530.375 270.25 C538.48728213 287.64012204 541.97212446 309.97840347 539 329 C545.489047 328.72387034 550.13226912 326.29188101 555 322 C557.28803351 319.41735348 558.94274842 317.47548991 559.08032227 313.92993164 C558.8248492 311.5393781 558.41782669 309.23059724 557.9375 306.875 C557.78627686 306.04057373 557.63505371 305.20614746 557.47924805 304.34643555 C556.26515888 297.83084463 554.79579216 291.38079342 553 285 C552.34 285 551.68 285 551 285 C550.89042969 284.41992188 550.78085937 283.83984375 550.66796875 283.2421875 C549.6856635 278.40253723 548.45178089 274.34633884 546 270 C545.34 270 544.68 270 544 270 C543.855625 269.38125 543.71125 268.7625 543.5625 268.125 C543.06847775 265.96741678 543.06847775 265.96741678 542 264 C541.34 264 540.68 264 540 264 C540 263.01 540 262.02 540 261 C539.34 261 538.68 261 538 261 C538 260.01 538 259.02 538 258 C534.32156998 254.33112434 527.48611815 249 522 249 Z M553 330 C553 331.32 553 332.64 553 334 C553.66 334 554.32 334 555 334 C555.33 332.35 555.66 330.7 556 329 C554.7763932 328.9254644 554.7763932 328.9254644 553 330 Z M544 334 C543.67 334.66 543.34 335.32 543 336 C544.485 336.99 544.485 336.99 546 338 C546.99 337.67 547.98 337.34 549 337 C548.67 336.01 548.34 335.02 548 334 C546.68 334 545.36 334 544 334 Z M456 422 C455.67 423.32 455.34 424.64 455 426 C456.32 426 457.64 426 459 426 C459 425.01 459 424.02 459 423 C458.01 422.67 457.02 422.34 456 422 Z M452 431 C451.67 432.32 451.34 433.64 451 435 C453.97065509 434.65772428 453.97065509 434.65772428 457 434 C457.33 433.34 457.66 432.68 458 432 C455.03 431.505 455.03 431.505 452 431 Z " fill="#FFFFFF" transform="translate(119,63)"/>
<path d="M0 0 C2.125 0.9375 2.125 0.9375 4 2 C1.81781061 6.08163664 -0.70507268 8.78233597 -4.1875 11.8125 C-5.53908203 12.99779297 -5.53908203 12.99779297 -6.91796875 14.20703125 C-7.60503906 14.79871094 -8.29210937 15.39039062 -9 16 C-4.67436009 19.76636526 0.04292406 22.3602747 5.0625 25.0625 C6.65908586 25.92555404 8.25419102 26.79135405 9.84765625 27.66015625 C10.54898682 28.03793213 11.25031738 28.41570801 11.97290039 28.80493164 C14.10917069 30.06436114 16.04384722 31.47848686 18 33 C22.62923795 31.07465785 25.41593477 27.59767255 28.78125 23.99609375 C30.9732772 22.02404111 32.12625223 21.37228096 35 21 C35.99 22.485 35.99 22.485 37 24 C36.54109375 24.50789063 36.0821875 25.01578125 35.609375 25.5390625 C34.99578125 26.22742188 34.3821875 26.91578125 33.75 27.625 C33.14671875 28.29789063 32.5434375 28.97078125 31.921875 29.6640625 C29.73638739 32.3204072 27.86865676 35.11433093 26 38 C27.010625 38.69867188 28.02125 39.39734375 29.0625 40.1171875 C30.37524473 41.03610881 31.68773151 41.95539872 33 42.875 C33.66773438 43.33519531 34.33546875 43.79539063 35.0234375 44.26953125 C36.71859351 45.46305946 38.3637578 46.72690339 40 48 C40 48.66 40 49.32 40 50 C40.70511719 50.23460937 41.41023438 50.46921875 42.13671875 50.7109375 C45.53203191 52.23952323 47.96938922 54.22719573 50.8125 56.625 C51.78832031 57.44226563 52.76414062 58.25953125 53.76953125 59.1015625 C54.50558594 59.72804687 55.24164063 60.35453125 56 61 C56.4846875 60.63648438 56.969375 60.27296875 57.46875 59.8984375 C62.3125 56.265625 67.15625 52.6328125 72 49 C73.32 49.66 74.64 50.32 76 51 C73.7308533 55.29821303 70.94448878 58.10780402 67.3125 61.3125 C66.54583008 61.9940918 66.54583008 61.9940918 65.76367188 62.68945312 C64.51423665 63.79876478 63.25782177 64.90020678 62 66 C62.72445312 66.59167969 63.44890625 67.18335938 64.1953125 67.79296875 C66.18404695 69.41842771 68.17096655 71.04610914 70.15625 72.67578125 C71.77235475 73.9966361 73.39375933 75.31122132 75.03125 76.60546875 C77.67242339 78.70934462 78.90525567 79.71576701 80 83 C79.67 83.66 79.34 84.32 79 85 C74.36382379 84.50446667 71.99723179 82.6886357 68.5 79.6875 C67.5821875 78.90761719 66.664375 78.12773437 65.71875 77.32421875 C64.8215625 76.55722656 63.924375 75.79023438 63 75 C59.89391577 72.00113832 59.89391577 72.00113832 56 71 C46.59636298 81.11226139 41.06666108 93.66669096 38 107 C38.65484375 107.08507812 39.3096875 107.17015625 39.984375 107.2578125 C44.03922149 108.25576695 47.52984807 110.00823311 51.25 111.875 C51.9821875 112.22691406 52.714375 112.57882813 53.46875 112.94140625 C55.35457749 113.88082772 57.18285342 114.93377472 59 116 C59.33 116.99 59.66 117.98 60 119 C59.67 119.66 59.34 120.32 59 121 C53.08732203 120.51051418 48.77453032 118.69849319 43.5625 115.9375 C42.83095703 115.56044922 42.09941406 115.18339844 41.34570312 114.79492188 C39.55906047 113.87240704 37.77884171 112.9374688 36 112 C35.01 116.62 34.02 121.24 33 126 C31.35 126.33 29.7 126.66 28 127 C26.48446908 123.02549507 27.50111377 119.79518851 28.4375 115.75 C28.72496094 114.48671875 29.01242188 113.2234375 29.30859375 111.921875 C29.53675781 110.95765625 29.76492187 109.9934375 30 109 C29.37134033 108.67837891 28.74268066 108.35675781 28.0949707 108.02539062 C16.4787119 102.06691817 4.94213974 96.14074378 -6 89 C-6.10957031 89.70125 -6.21914062 90.4025 -6.33203125 91.125 C-7.32906005 97.09096094 -8.68104379 102.41342368 -11 108 C-12.32 108 -13.64 108 -15 108 C-16.0354051 104.8151065 -15.94040666 102.86968126 -15.00390625 99.671875 C-14.77509766 98.87265625 -14.54628906 98.0734375 -14.31054688 97.25 C-14.06369141 96.425 -13.81683594 95.6 -13.5625 94.75 C-13.31951172 93.90953125 -13.07652344 93.0690625 -12.82617188 92.203125 C-12.22626051 90.13284266 -11.61429181 88.06606103 -11 86 C-11.4626123 85.64808594 -11.92522461 85.29617187 -12.40185547 84.93359375 C-28.62481912 72.58398862 -28.62481912 72.58398862 -36.1171875 66.48828125 C-38.13861136 64.84923417 -38.13861136 64.84923417 -41 63 C-41.18175781 63.67804688 -41.36351563 64.35609375 -41.55078125 65.0546875 C-43.26525759 71.40264607 -45.07682651 77.71217744 -47 84 C-49.475 84.495 -49.475 84.495 -52 85 C-53.24881179 81.45265056 -52.73522457 79.32383554 -51.56640625 75.796875 C-51.0878418 74.32734375 -51.0878418 74.32734375 -50.59960938 72.828125 C-50.25736328 71.81234375 -49.91511719 70.7965625 -49.5625 69.75 C-49.22412109 68.71875 -48.88574219 67.6875 -48.53710938 66.625 C-47.7006023 64.0801334 -46.85462088 61.53882926 -46 59 C-56.85235441 48.83646018 -56.85235441 48.83646018 -68 39 C-67.67 37.35 -67.34 35.7 -67 34 C-62.86594195 35.38292333 -60.29024185 37.27689743 -57.125 40.25 C-56.26003906 41.04921875 -55.39507812 41.8484375 -54.50390625 42.671875 C-53.26447266 43.82429688 -53.26447266 43.82429688 -52 45 C-47.47354649 49.24586781 -47.47354649 49.24586781 -42 52 C-41.649375 50.741875 -41.29875 49.48375 -40.9375 48.1875 C-37.22102296 37.14178453 -29.16372208 27.16372208 -21 19 C-24.04111749 17.39479066 -27.08299233 15.79102164 -30.125 14.1875 C-30.9809375 13.73568359 -31.836875 13.28386719 -32.71875 12.81835938 C-37.12329618 10.49750235 -41.53530477 8.20307093 -46 6 C-45.67 4.35 -45.34 2.7 -45 1 C-37.45257221 3.2638879 -30.64367266 6.49639477 -23.66601562 10.12304688 C-22.86228516 10.52201172 -22.05855469 10.92097656 -21.23046875 11.33203125 C-20.51270264 11.70046143 -19.79493652 12.0688916 -19.05541992 12.44848633 C-16.97597385 13.2155164 -16.97597385 13.2155164 -14.90600586 12.25097656 C-12.1222834 10.4239247 -9.80295136 8.21165929 -7.375 5.9375 C-2.19444444 1.09722222 -2.19444444 1.09722222 0 0 Z M-15 21 C-23.83291204 30.03575553 -38 44.61242636 -38 58 C-36.02156472 59.8046744 -34.07288716 61.3997317 -31.9375 63 C-31.31858887 63.47477783 -30.69967773 63.94955566 -30.06201172 64.4387207 C-23.12265908 69.73408489 -16.06984169 74.88080091 -9 80 C-7.18000693 77.27001039 -5.94797636 74.62265018 -4.69189453 71.60620117 C0.47099059 59.24079031 7.29563617 49.20443561 16 39 C12.67618104 36.23215302 9.35267192 33.92275017 5.5859375 31.80078125 C4.57789063 31.23166016 3.56984375 30.66253906 2.53125 30.07617188 C0.96890625 29.2031543 0.96890625 29.2031543 -0.625 28.3125 C-1.67429688 27.71888672 -2.72359375 27.12527344 -3.8046875 26.51367188 C-9.23547725 23.38943486 -9.23547725 23.38943486 -15 21 Z M20 42 C10.06411833 52.08362712 -3 69.46861446 -3 84 C-0.90582938 85.60897414 1.02217996 86.8515763 3.3125 88.125 C3.96951904 88.50390381 4.62653809 88.88280762 5.3034668 89.27319336 C10.91464641 92.47390455 16.60976758 95.52865723 22.3125 98.5625 C23.14241455 99.00416504 23.9723291 99.44583008 24.82739258 99.90087891 C25.60236084 100.30612793 26.3773291 100.71137695 27.17578125 101.12890625 C27.86583252 101.49056885 28.55588379 101.85223145 29.2668457 102.22485352 C30.98785356 103.136091 30.98785356 103.136091 33 103 C33.19634033 102.45061768 33.39268066 101.90123535 33.5949707 101.33520508 C34.49534627 98.82563638 35.40384156 96.31908093 36.3125 93.8125 C36.62123047 92.94818359 36.92996094 92.08386719 37.24804688 91.19335938 C38.83764347 86.8261519 40.50930746 82.94678972 43 79 C43 78.34 43 77.68 43 77 C43.66 77 44.32 77 45 77 C45.33 76.01 45.66 75.02 46 74 C46.97753644 72.97803008 47.9805881 71.98020375 49 71 C50.77409808 69.07977297 50.77409808 69.07977297 52 67 C50.89915326 63.69745979 50.29043734 63.18783955 47.60546875 61.1796875 C46.90236572 60.64819092 46.1992627 60.11669434 45.47485352 59.5690918 C44.72002686 59.0100415 43.9652002 58.45099121 43.1875 57.875 C42.42300537 57.30112549 41.65851074 56.72725098 40.87084961 56.13598633 C39.31992921 54.97251186 37.76695537 53.81176949 36.21191406 52.65380859 C34.22082435 51.16510642 32.24384523 49.66043736 30.2734375 48.14453125 C29.20314763 47.32549126 28.13283675 46.50647873 27.0625 45.6875 C26.12535156 44.96949219 25.18820313 44.25148437 24.22265625 43.51171875 C22.17238052 41.81253683 22.17238052 41.81253683 20 42 Z " fill="#FFFFFF" transform="translate(128,79)"/>
<path d="M0 0 C56.43 0 112.86 0 171 0 C171 8.91 171 17.82 171 27 C180.24 27 189.48 27 199 27 C199 60.66 199 94.32 199 129 C197.35 129 195.7 129 194 129 C192.98309383 123.9638543 192.86406879 119.16735083 192.88647461 114.05712891 C192.88632858 113.1784314 192.88618256 112.29973389 192.8860321 111.39440918 C192.88672587 108.50510139 192.8944931 105.61585896 192.90234375 102.7265625 C192.90420983 100.71731603 192.90563284 98.70806911 192.90663147 96.69882202 C192.91044164 91.42167902 192.9202591 86.14456373 192.93133545 80.86743164 C192.94158184 75.47803116 192.946136 70.08862618 192.95117188 64.69921875 C192.96188274 54.13279839 192.97946737 43.56640584 193 33 C185.74 33 178.48 33 171 33 C171 55.44 171 77.88 171 101 C169.02 101 167.04 101 165 101 C165 78.56 165 56.12 165 33 C157.74 33.33 150.48 33.66 143 34 C138.64192083 34.07474619 134.30204466 34.12924642 129.94580078 34.11352539 C128.82092758 34.11367142 127.69605438 34.11381744 126.53709412 34.1139679 C122.92314526 34.11328694 119.30925202 34.10558276 115.6953125 34.09765625 C113.14842761 34.09578557 110.60154236 34.09436475 108.05465698 34.09336853 C102.10195699 34.08997746 96.14927401 34.08214646 90.19658267 34.07201904 C83.4029759 34.06071961 76.60936806 34.05531314 69.81575418 34.05032361 C55.87715903 34.03995851 41.93858057 34.0224467 28 34 C28 32.02 28 30.04 28 28 C73.21 27.67 118.42 27.34 165 27 C165 20.07 165 13.14 165 6 C110.55 6 56.1 6 0 6 C0 4.02 0 2.04 0 0 Z " fill="#FFFFFF" transform="translate(498,14)"/>
<path d="M0 0 C1.65 0 3.3 0 5 0 C6.3240315 3.97209451 6.0840845 7.7410169 6.02172852 11.87768555 C6.0073172 13.23896576 6.0073172 13.23896576 5.99261475 14.62774658 C5.95960389 17.63081571 5.91927938 20.63374031 5.87890625 23.63671875 C5.85460718 25.71750884 5.83076352 27.79830429 5.80735779 29.87910461 C5.74449569 35.3585521 5.67543499 40.83790473 5.60510254 46.31726074 C5.53443834 51.90742673 5.46960991 57.49766001 5.40429688 63.08789062 C5.27525709 74.0586697 5.13913264 85.02934427 5 96 C12.59 96 20.18 96 28 96 C28 73.56 28 51.12 28 28 C29.65 28 31.3 28 33 28 C33 50.44 33 72.88 33 96 C78.54 96 124.08 96 171 96 C171 97.65 171 99.3 171 101 C125.46 101 79.92 101 33 101 C33 108.59 33 116.18 33 124 C87.78 124 142.56 124 199 124 C199 125.65 199 127.3 199 129 C142.57 129 86.14 129 28 129 C28 119.76 28 110.52 28 101 C18.76 101 9.52 101 0 101 C0 67.67 0 34.34 0 0 Z " fill="#FFFFFF" transform="translate(18,385)"/>
<path d="M0 0 C0.99 0.99 0.99 0.99 2 2 C1.8125 4.0625 1.8125 4.0625 1 6 C-2.00582559 7.00194186 -4.55303815 7.14598931 -7.69677734 7.23876953 C-41.40192332 8.31773435 -75.9825563 22.02795309 -99.89453125 45.890625 C-106.24557104 52.71476708 -110.96114729 60.98475378 -115.1875 69.25 C-117 72 -117 72 -119.75 72.9375 C-120.4925 72.958125 -121.235 72.97875 -122 73 C-122.53281261 67.57197151 -120.83349766 64.20534376 -118 59.75 C-117.59499268 59.09467285 -117.18998535 58.4393457 -116.77270508 57.76416016 C-113.25056613 52.16908496 -109.27744618 47.03767751 -105 42 C-104.39285156 41.19304687 -103.78570312 40.38609375 -103.16015625 39.5546875 C-82.55661087 15.18810761 -43.16960906 3.19046574 -12.6875 0.375 C-3.92978315 -0.25629021 -3.92978315 -0.25629021 0 0 Z " fill="#FFFFFF" transform="translate(602,312)"/>
<path d="M0 0 C1.32 0 2.64 0 4 0 C3.53899391 5.34767061 2.70474418 10.34408412 1.4375 15.5625 C-2.98067209 35.73809372 2.21945996 52.87945805 12.9140625 70.078125 C20.77667158 81.40287058 30.8326629 90.10685598 42 98 C41.67 99.65 41.34 101.3 41 103 C35.71223057 102.66951441 31.75899378 99.51647805 28 96 C28 95.34 28 94.68 28 94 C27.41476563 93.72800781 26.82953125 93.45601563 26.2265625 93.17578125 C11.15184236 85.21527114 0.50750291 65.57848595 -4.4375 49.875 C-8.95937162 33.93692335 -7.26867894 18.59228972 -2 3 C-1.34 2.01 -0.68 1.02 0 0 Z " fill="#FFFFFF" transform="translate(138,258)"/>
<path d="M0 0 C0.52207031 0.43570313 1.04414063 0.87140625 1.58203125 1.3203125 C1.25203125 2.6403125 0.92203125 3.9603125 0.58203125 5.3203125 C-4.54248434 4.72165414 -8.6360416 3.07224565 -13.29296875 1.0078125 C-21.52464198 -2.49931567 -29.66056984 -4.89227993 -38.41796875 -6.6796875 C-39.52011719 -6.90527344 -40.62226563 -7.13085938 -41.7578125 -7.36328125 C-60.175338 -10.53871668 -79.03563829 -9.5073229 -96.76953125 -3.5546875 C-99.48515247 -2.65749111 -101.57960511 -2.51272493 -104.41796875 -2.6796875 C-104.74796875 -3.9996875 -105.07796875 -5.3196875 -105.41796875 -6.6796875 C-100.82010623 -9.93531686 -95.99662826 -11.01937795 -90.60546875 -12.3046875 C-89.74115234 -12.52125 -88.87683594 -12.7378125 -87.98632812 -12.9609375 C-61.46458029 -19.44625546 -23.17424874 -16.09842804 0 0 Z " fill="#FFFFFF" transform="translate(349.41796875,108.6796875)"/>
<path d="M0 0 C3.98065077 3.49814765 5.2746209 6.43977662 5.625 11.6875 C5.49984355 16.61277455 3.95088917 19.0647575 0.5703125 22.53515625 C-2.78544092 25.37798363 -6.07123602 25.2567555 -10.3203125 25.23828125 C-14.6143757 24.53969485 -17.18749169 22.05868718 -19.9375 18.8125 C-21.78217846 15.12314308 -21.28759552 10.84814658 -20.9375 6.8125 C-19.65616686 3.64288644 -18.4174767 2.23429771 -15.875 0 C-10.64476634 -2.11434978 -5.23023366 -2.11434978 0 0 Z M-8.6875 11.25 C-9.1 11.765625 -9.5125 12.28125 -9.9375 12.8125 C-9.6075 13.8025 -9.2775 14.7925 -8.9375 15.8125 C-7.0852633 16.81728037 -7.0852633 16.81728037 -4.9375 16.8125 C-3.16559091 15.45805699 -3.16559091 15.45805699 -1.9375 13.8125 C-2.2675 12.8225 -2.5975 11.8325 -2.9375 10.8125 C-5.57392987 9.58216606 -6.38924397 9.36214683 -8.6875 11.25 Z " fill="#FFFFFF" transform="translate(553.9375,414.1875)"/>
<path d="M0 0 C1.65 0.33 3.3 0.66 5 1 C4.34 6.94 3.68 12.88 3 19 C7.95 19 12.9 19 18 19 C18.66 17.35 19.32 15.7 20 14 C20.62160326 12.80209569 21.26869398 11.61693136 21.9453125 10.44921875 C22.29980469 9.83369141 22.65429688 9.21816406 23.01953125 8.58398438 C23.38433594 7.95814453 23.74914062 7.33230469 24.125 6.6875 C24.49753906 6.04232422 24.87007812 5.39714844 25.25390625 4.73242188 C26.16632213 3.15324055 27.08275509 1.57638136 28 0 C29.65 0 31.3 0 33 0 C33.34611328 1.23363281 33.34611328 1.23363281 33.69921875 2.4921875 C35.61044139 9.03415905 37.75224737 15.00256902 41.046875 20.9765625 C42 23 42 23 42 26 C40.02 26 38.04 26 36 26 C35.01 24.02 34.02 22.04 33 20 C27.91696314 19.88679144 27.91696314 19.88679144 23 21 C21.30117552 23.49759982 21.30117552 23.49759982 20 26 C19.26394531 25.91621094 18.52789062 25.83242188 17.76953125 25.74609375 C16.79371094 25.64425781 15.81789062 25.54242188 14.8125 25.4375 C13.84957031 25.33308594 12.88664063 25.22867187 11.89453125 25.12109375 C9.02220891 25.00092912 6.8013007 25.42613719 4 26 C1.66698014 26.03824623 -0.66711508 26.04574284 -3 26 C-1.43333333 2.86666667 -1.43333333 2.86666667 0 0 Z M29 8 C28.01 9.98 27.02 11.96 26 14 C27.65 13.67 29.3 13.34 31 13 C30.67 11.35 30.34 9.7 30 8 C29.67 8 29.34 8 29 8 Z " fill="#FFFFFF" transform="translate(183,441)"/>
<path d="M0 0 C3.63467079 1.62400184 4.77408696 2.66113044 7 6 C7.61780406 10.28451124 7.45715817 13.97683649 5.6875 17.9375 C3.7104806 20.35385704 2.07364287 21.84518633 -1.0859375 22.30078125 C-5.88349381 22.32534212 -9.13173165 22.16494683 -13 19 C-15.69346914 14.95979629 -15.55014255 11.74289561 -15 7 C-11.82215155 -0.11232749 -7.14858723 -0.82918586 0 0 Z M-3 11 C-3.99 12.485 -3.99 12.485 -5 14 C-4.67 14.66 -4.34 15.32 -4 16 C-2.68 16 -1.36 16 0 16 C0.33 15.01 0.66 14.02 1 13 C-0.32 12.34 -1.64 11.68 -3 11 Z " fill="#FFFFFF" transform="translate(633,357)"/>
<path d="M0 0 C0.07456036 3.87713858 0.00711597 7.25928354 -1 11 C-0.67 11.33 -0.34 11.66 0 12 C0.70488754 19.04887536 0.70488754 19.04887536 -2.03515625 22.74609375 C-5.70173891 25.5334695 -8.40612917 25.58658048 -12.8125 25.3125 C-13.50537109 25.28994141 -14.19824219 25.26738281 -14.91210938 25.24414062 C-16.60901573 25.18562661 -18.30479861 25.0959548 -20 25 C-21.48217425 19.56536108 -20.31551582 14.82999177 -19.375 9.375 C-19.02477851 6.22300663 -19.17291488 4.03264546 -20 1 C-14.4619924 -1.46133671 -5.62486836 -2.81243418 0 0 Z M-13 5 C-13.89830839 8.05272465 -13.89830839 8.05272465 -14 11 C-11.36 9.68 -8.72 8.36 -6 7 C-6 5.68 -6 4.36 -6 3 C-8.83735815 3 -10.52409924 3.60333803 -13 5 Z M-15 13 C-15 15.97 -15 18.94 -15 22 C-9.64037108 21.70671668 -9.64037108 21.70671668 -5.5625 18.4375 C-5.046875 17.633125 -4.53125 16.82875 -4 16 C-4.33 15.34 -4.66 14.68 -5 14 C-7.35599235 13.53248212 -7.35599235 13.53248212 -10.0625 13.375 C-10.98160156 13.30023438 -11.90070313 13.22546875 -12.84765625 13.1484375 C-13.55792969 13.09945313 -14.26820313 13.05046875 -15 13 Z " fill="#FFFFFF" transform="translate(248,442)"/>
<path d="M0 0 C1.13824219 -0.00515625 2.27648437 -0.0103125 3.44921875 -0.015625 C6.3125 0.25 6.3125 0.25 8.3125 2.25 C8.0522104 4.59260643 7.71297444 6.92724823 7.3125 9.25 C7.3125 10.57 7.3125 11.89 7.3125 13.25 C7.6425 13.58 7.9725 13.91 8.3125 14.25 C8.16176222 18.16918215 7.58510394 20.77546722 5.625 24.1875 C0.13119989 27.60816799 -5.32323015 26.54739579 -11.6875 26.25 C-11.6875 18.33 -11.6875 10.41 -11.6875 2.25 C-7.08086302 0.40734521 -4.79229664 -0.02185768 0 0 Z M-5.6875 6.25 C-7.65854759 11.72850149 -7.93825166 17.48271185 -7.6875 23.25 C-2.52751623 22.87590749 -2.52751623 22.87590749 1.75 20.1875 C2.265625 19.548125 2.78125 18.90875 3.3125 18.25 C2.9825 17.26 2.6525 16.27 2.3125 15.25 C-0.3275 15.25 -2.9675 15.25 -5.6875 15.25 C-5.6875 13.93 -5.6875 12.61 -5.6875 11.25 C-4.945 11.188125 -4.2025 11.12625 -3.4375 11.0625 C0.1310739 10.00814862 1.23495228 8.25090227 3.3125 5.25 C-0.31059464 3.9081131 -2.50426344 3.98822666 -5.6875 6.25 Z " fill="#FFFFFF" transform="translate(74.6875,440.75)"/>
<path d="M0 0 C2.625 -0.1875 2.625 -0.1875 5 0 C5.2475 1.093125 5.495 2.18625 5.75 3.3125 C8.04703596 12.74295225 8.04703596 12.74295225 12.62890625 21.140625 C14 23 14 23 14 26 C11.1875 26.3125 11.1875 26.3125 8 26 C6.11400657 23.61107499 5 22.08148442 5 19 C1.37 19.33 -2.26 19.66 -6 20 C-6.66 21.98 -7.32 23.96 -8 26 C-9.65 26 -11.3 26 -13 26 C-12.54584653 20.17015235 -10.05231206 16.17251707 -7.0625 11.3125 C-6.60681641 10.55388672 -6.15113281 9.79527344 -5.68164062 9.01367188 C-3.84384894 5.96503648 -1.97498281 2.96247421 0 0 Z M1 8 C0.01 9.98 -0.98 11.96 -2 14 C-0.35 13.67 1.3 13.34 3 13 C2.67 11.35 2.34 9.7 2 8 C1.67 8 1.34 8 1 8 Z " fill="#FFFFFF" transform="translate(96,441)"/>
<path d="M0 0 C2 2 2 2 2.125 4.625 C2.08375 5.40875 2.0425 6.1925 2 7 C0.68 7 -0.64 7 -2 7 C-2 6.34 -2 5.68 -2 5 C-7.58500567 5.19898708 -7.58500567 5.19898708 -12 8 C-11.39671875 8.25394531 -10.7934375 8.50789063 -10.171875 8.76953125 C-1.16262421 12.64932151 -1.16262421 12.64932151 1 15 C1.625 17.375 1.625 17.375 1 20 C-2.57028394 23.4909443 -5.36410455 25.89622459 -10.48046875 26.09765625 C-11.37378906 26.08605469 -12.26710938 26.07445312 -13.1875 26.0625 C-14.53908203 26.04896484 -14.53908203 26.04896484 -15.91796875 26.03515625 C-16.60503906 26.02355469 -17.29210937 26.01195312 -18 26 C-18 24.35 -18 22.7 -18 21 C-17.31292969 20.95101563 -16.62585938 20.90203125 -15.91796875 20.8515625 C-15.01691406 20.77679688 -14.11585937 20.70203125 -13.1875 20.625 C-12.29417969 20.55539062 -11.40085937 20.48578125 -10.48046875 20.4140625 C-7.75601501 20.13354964 -7.75601501 20.13354964 -5 18 C-5.69867188 17.73445313 -6.39734375 17.46890625 -7.1171875 17.1953125 C-8.02726562 16.84210938 -8.93734375 16.48890625 -9.875 16.125 C-10.77992187 15.77695312 -11.68484375 15.42890625 -12.6171875 15.0703125 C-15 14 -15 14 -17 12 C-17.39776745 8.91730223 -17.63593334 6.9521309 -17 4 C-12.42874481 -0.94189751 -6.33888254 -0.890758 0 0 Z " fill="#FFFFFF" transform="translate(129,441)"/>
<path d="M0 0 C4.34469834 0.51430175 6.40626147 1.91132932 9.625 4.8125 C18.21770237 11.8866099 27.06424042 13.43161343 37.91015625 14.3125 C41 15 41 15 42.49609375 16.9375 C43 19 43 19 42 21 C27.38212774 21.75609684 14.3076362 17.94112642 3.375 8.1875 C1.90638772 6.80248565 0.44422591 5.41042488 -1 4 C-0.67 2.68 -0.34 1.36 0 0 Z " fill="#FFFFFF" transform="translate(195,351)"/>
<path d="M0 0 C1 1 1 1 1.0625 4.5625 C1.041875 5.696875 1.02125 6.83125 1 8 C-0.65 8.33 -2.3 8.66 -4 9 C-4 7.35 -4 5.7 -4 4 C-10.18771746 6.66921145 -12.3487154 9.63092419 -15.25 15.66015625 C-16.29037496 18.11339118 -16.29037496 18.11339118 -15 21 C-11.19402954 22.26865682 -9.71644033 21.28937726 -6 20 C-4.68 20 -3.36 20 -2 20 C-2.57344937 22.86724686 -2.8614515 23.8614515 -5 26 C-8.1875 26.30078125 -8.1875 26.30078125 -12 26.3125 C-13.258125 26.32925781 -14.51625 26.34601563 -15.8125 26.36328125 C-16.864375 26.24339844 -17.91625 26.12351562 -19 26 C-21.85403865 21.71894202 -21.7305891 18.02466382 -21 13 C-19.7311516 9.96944474 -18.03864858 7.56108777 -16 5 C-15.29875 4.01 -14.5975 3.02 -13.875 2 C-9.53349654 -1.02017632 -5.14207907 -0.60393546 0 0 Z " fill="#FFFFFF" transform="translate(164,441)"/>
<path d="M0 0 C5.43800049 2.93309475 10.19171382 6.71141637 14.9765625 10.60546875 C14.6465625 11.92546875 14.3165625 13.24546875 13.9765625 14.60546875 C12.203125 15.30078125 12.203125 15.30078125 9.9765625 15.60546875 C8.1875 14.34765625 8.1875 14.34765625 6.3515625 12.48046875 C-1.56268437 5.18950506 -10.4308686 2.73467075 -20.6796875 0.40234375 C-24.0234375 -0.39453125 -24.0234375 -0.39453125 -26.0234375 -1.39453125 C-26.0234375 -2.71453125 -26.0234375 -4.03453125 -26.0234375 -5.39453125 C-18.18453648 -8.00749826 -7.30599911 -3.200067 0 0 Z " fill="#FFFFFF" transform="translate(334.0234375,124.39453125)"/>
<path d="M0 0 C1.65 0.33 3.3 0.66 5 1 C4.01 8.92 3.02 16.84 2 25 C0.68 25 -0.64 25 -2 25 C-2.20705918 16.3725342 -2.21462689 8.40371809 0 0 Z " fill="#FFFFFF" transform="translate(136,441)"/>
<path d="" fill="#FFFFFF" transform="translate(0,0)"/>
<path d="" fill="#FFFFFF" transform="translate(0,0)"/>
<path d="" fill="#FFFFFF" transform="translate(0,0)"/>
<path d="" fill="#FFFFFF" transform="translate(0,0)"/>
</svg>
